PathFileType	4	(X/Y/Z)	F:\MotionCapture\20160217\3\Generated_files\EMG_test03-Dynamic.trc
DataRate	CameraRate	NumFrames	NumMarkers	Units	OrigDataRate	OrigDataStartFrame	OrigNumFrames
120.00	120.00	       19	39	mm	120.00	1	       739
Frame#	Time	Top.Head			Front.Head			Rear.Head			R.Shoulder			R.Offset			R.Elbow			R.Wrist			L.Shoulder			L.Elbow			L.Wrist			R.ASIS			L.ASIS			V.Sacral			R.Thigh			R.Knee			R.Shank			R.Ankle			R.Heel			R.Toe			L.Thigh			L.Knee			L.Shank			L.Ankle			L.Heel			L.Toe			R1			R2			R3			R4			R5			R6			R7			L1			L2			L3			L4			L5			L6			L7			V_Mid_ASIS			V_Pelvis_Origin			V_R.Hip_JC			V_L.Hip_JC			V_R.Knee_JC			V_L.Knee_JC			V_R.Ankle_JC			V_L.Ankle_JC			V_Mid_Hip			V_Mid_Shoulder			V_R.Hand			V_L.Hand			V_R.Toe_Offset_Static			V_L.Toe_Offset_Static			V_R.Toe_Offset			V_L.Toe_Offset			
		X1	Y1	Z1	X2	Y2	Z2	X3	Y3	Z3	X4	Y4	Z4	X5	Y5	Z5	X6	Y6	Z6	X7	Y7	Z7	X8	Y8	Z8	X9	Y9	Z9	X10	Y10	Z10	X11	Y11	Z11	X12	Y12	Z12	X13	Y13	Z13	X14	Y14	Z14	X15	Y15	Z15	X16	Y16	Z16	X17	Y17	Z17	X18	Y18	Z18	X19	Y19	Z19	X20	Y20	Z20	X21	Y21	Z21	X22	Y22	Z22	X23	Y23	Z23	X24	Y24	Z24	X25	Y25	Z25	X26	Y26	Z26	X27	Y27	Z27	X28	Y28	Z28	X29	Y29	Z29	X30	Y30	Z30	X31	Y31	Z31	X32	Y32	Z32	X33	Y33	Z33	X34	Y34	Z34	X35	Y35	Z35	X36	Y36	Z36	X37	Y37	Z37	X38	Y38	Z38	X39	Y39	Z39	

1	0.000																																																																																																																																																																						-3707.78174	476.43954	877.21564	-3860.50391	316.55475	41.26031	-3759.26660	105.62667	67.34219	-3656.40308	30.19037	63.51644	-3863.90991	153.53651	83.61078	-4352.63965	175.19405	-42.19552	-3848.01880	275.18930	43.87363	-3937.62085	333.31784	32.22126	-3766.88672	196.21156	1650.84277	-3668.90771	62.20708	64.41330	-3828.29639	108.56697	43.79064	-3868.54199	-0.35503	467.67581	
2	0.008																																																																																																																																																																						-3603.59961	46.87506	74.29862	-3848.01636	275.70081	44.20050	-3704.33667	474.52069	877.39929	-3822.48633	298.01663	615.32880	-3936.60010	333.83047	32.30178	-3709.25781	-8.04682	49.62899	-3844.26196	507.93228	1088.36731	-3756.69287	103.97105	65.93124	-4031.58325	297.21701	43.89738	-3827.12427	105.40291	44.75314	
3	0.017																																																																																																																																																																						-3722.84351	-1.44463	44.19687	-3860.78125	316.67545	41.18883	-4059.20630	235.63914	31.50652	-3663.46265	65.09900	60.25814	-3837.27808	350.09668	939.41449	-3842.12769	506.04974	1088.02002	-3701.64697	471.61249	877.52832	-3820.13794	297.87457	614.87714	-3935.65649	334.23135	32.42274	-3920.59692	341.49258	461.19406	-3771.16309	92.53522	244.15744	-3754.66992	104.35841	65.23734	-3825.00293	106.04458	43.91293	-4031.69458	297.31741	43.96777	
4	0.025																																																																																																																																																																						-3860.77490	316.66489	41.20447	-3752.96704	106.68226	65.89902	-3698.56494	469.25513	878.32916	-3933.86206	334.95499	32.60709	-3599.13452	49.24196	72.00455	-3769.01929	93.21790	243.84280	-3875.48804	37.41283	8.43987	-3848.50171	276.62582	44.50550	-3871.40210	-128.16743	869.97711	-3868.20313	223.46700	1727.94873	-3762.38574	191.92018	1650.54846	-3919.01294	340.26349	460.57486	-3910.00098	264.11273	322.17331	-4031.76196	297.19382	43.90875	
5	0.033																																																																																																																																																																						-3777.72241	18.66638	27.31305	-3860.87378	316.70035	41.19268	-3767.16260	94.71294	243.37929	-4059.25708	235.72174	31.69487	-4353.35498	174.71602	-42.10142	-3837.87915	503.28696	1087.67139	-3751.44531	110.36671	64.62415	-3695.47437	466.61963	878.63666	-3916.79590	340.47787	460.38873	-3932.22266	335.52371	32.83674	-3821.47314	112.56305	42.50843	-3661.60645	69.76136	57.93750	
6	0.042																																																																																																																																																																						-3860.96875	316.77637	41.10558	-4352.08984	175.07576	-41.47263	-3751.94385	110.66203	63.59998	-3932.65649	335.63269	32.50580	-3821.37671	113.10821	41.67913	-3699.10522	2.94545	40.58524	-3659.28784	69.53780	58.43343	-4059.07471	236.04231	31.92984	-3698.47583	463.66022	878.46967	-3864.49731	221.20242	1727.36548	-3871.34399	422.67059	1413.58447	-3944.32007	-162.81487	856.25732	-3812.27295	297.23911	613.78735	-3914.78589	339.61432	459.89987	-3907.25879	261.22626	320.34988	-3848.85327	275.32071	43.66619	
7	0.050																																																																																																																																																																						-3758.28906	185.30139	1649.92224	-3861.01538	316.78891	41.10754	-3597.54785	55.87791	65.28737	-4059.20020	235.61050	31.90399	-4352.00244	175.16827	-41.74704	-3696.93994	55.86807	43.09004	-3751.62231	110.91396	62.87315	-3862.99609	219.32985	1727.35461	-3869.93677	419.98267	1412.72412	-3930.38892	336.32968	32.83908	-3821.87939	112.84842	40.89941	-3942.06201	-164.21693	855.80426	-3809.13574	297.14197	613.61761	-3848.99414	275.32141	43.63565	-3690.14185	463.09796	879.32489	-3764.63135	93.53365	240.94006	
8	0.058																																																																																																																																																																						-3861.04272	316.85446	41.10090	-3577.62476	58.36541	69.32380	-3753.06055	109.83933	61.34393	-3931.13745	336.02393	32.83725	-3822.35669	112.60458	40.25339	-3762.94141	95.44558	240.83321	-3687.94531	460.70990	879.56024	-3806.33276	296.64670	612.57855	-4059.18848	235.72491	32.08102	-3615.43018	83.21697	65.74971	-3868.29321	419.43866	1413.13855	-3832.86304	498.68018	1086.63147	-3909.52881	339.80780	459.65402	-3623.60962	56.49144	54.53671	-3849.07324	275.50687	43.68843	-4032.00342	296.99448	44.16497	
9	0.067																																																																																																																																																																						-4058.96875	235.86536	32.21964	-3861.11743	316.97137	41.12112	-3576.33691	59.07199	67.37126	-3459.01147	-3.49687	99.57458	-4352.57764	174.82997	-41.32292	-3860.14795	216.64130	1726.37634	-3752.89111	109.78500	60.20408	-3866.55908	417.63519	1412.52454	-3613.76245	94.41853	67.42812	-3931.56763	336.09210	32.49225	-3822.56030	112.46164	39.52975	-3685.61670	458.63016	879.52588	-3849.18652	275.60266	43.71649	
10	0.075																																																																																																																																																																						-3861.23926	316.88834	41.04625	-3609.15698	61.37988	55.22252	-3753.02124	109.10701	58.94381	-3931.79468	335.99377	32.49818	-3822.57446	112.02188	39.16414	-3682.90991	456.99945	880.09021	-3868.30469	-135.63002	863.74133	-4058.99854	235.18593	32.25306	-3858.53906	215.29868	1726.30859	-3829.76318	497.05533	1086.23450	-3899.17505	261.33572	318.34189	-4032.08130	296.58728	44.35337	-3849.34619	275.78036	43.76798	
11	0.083																																																																																																																																																																						-3696.68237	0.83164	36.49817	-3861.26465	317.13022	41.11588	-3656.09155	74.25270	47.23464	-3681.56934	454.12875	879.48938	-4058.76099	235.34996	32.65819	-3625.12207	54.47936	48.24353	-3751.40649	111.82703	58.93654	-3863.49634	414.42239	1411.91150	-3828.42627	494.64880	1085.60498	-3932.14746	335.93918	32.26341	-3822.31299	111.24786	38.27235	-3834.55029	2.62263	464.72000	-3900.03418	338.45193	458.48834	-4032.18433	296.51874	44.59919	-3849.43115	276.00467	43.88789	
12	0.092																																																																																																																																																																						-3751.82349	30.62892	18.95652	-3861.33960	317.25546	41.14325	-3679.51221	452.57193	880.11182	-3750.48584	113.35760	58.81793	-3930.67432	336.40024	32.51346	-3821.78760	110.63797	37.56612	-3857.18506	151.86577	83.75199	-3986.23535	214.01019	-50.14104	-3829.78857	3.16511	464.41321	-3697.34155	0.90810	39.61474	-3855.15845	212.45032	1725.14819	-3862.41382	411.99585	1411.30530	-3897.05005	337.19092	457.28647	-4032.05737	296.30472	45.01778	-3815.39209	288.62137	33.13615	-3849.60938	276.11371	43.82768	-3614.60352	59.12919	42.37453	
13	0.100																																																																																																																																																																						-3861.44775	317.29666	41.15218	-3648.94556	72.99700	49.93919	-3864.62451	-138.26880	860.61731	-3668.89380	41.75623	37.01424	-3748.81177	112.52421	57.06479	-3716.39624	77.42531	588.73242	-3678.19409	450.75281	879.39398	-3931.38794	336.10223	32.48198	-3856.41211	151.25674	84.07782	-3697.29321	-2.41586	38.68674	-3860.74878	411.06491	1411.07581	-3892.93286	336.35742	456.52994	-3801.68701	385.35138	104.13292	-3849.79053	276.10059	43.75067	-3759.58667	93.13561	235.24466	
14	0.108																																																																																																																																																																						-3696.18799	-4.49391	36.39905	-3861.49854	317.21664	41.06984	-3650.92651	69.93891	44.27925	-3859.43042	408.96881	1410.63513	-3667.46875	39.85452	36.43482	-3747.82300	110.25504	55.42023	-3931.62231	336.22702	32.39007	-3825.10205	490.46664	1084.11121	-3855.55420	151.20264	84.74766	-3676.53613	448.51538	879.82672	-3722.08301	74.14481	585.81750	-3781.14746	292.09241	610.28113	-3888.46826	337.19263	456.09119	-4031.91357	295.98785	45.71328	-3815.57813	289.40723	33.25555	-3849.94507	276.26245	43.63416	-3758.31079	92.93205	235.02017	
15	0.117																																																																																																																																																																						-3696.01685	-4.73249	36.00555	-3861.48096	317.55493	41.30584	-3850.35815	276.07745	43.99483	-3748.24390	107.44436	54.88254	-3650.15796	70.43041	47.34756	-3611.07935	57.16419	37.81244	-3932.87842	335.94467	32.11359	-3675.03882	447.58383	879.53937	-3850.48926	207.38249	1724.57996	-3813.21558	6.45574	466.15845	-4031.94116	295.87552	45.85287	-3757.57202	92.95123	234.86382	
16	0.125																																																																																																																																																																						-3695.18774	-4.34537	35.73499	-3674.45947	445.69409	879.76709	-3876.44775	3.25097	-12.75302	-3850.24463	276.91327	44.50584	-3856.16138	405.47971	1410.02527	-3747.95215	108.19519	54.44685	-3645.80249	73.26194	46.80429	-3931.74683	336.13281	32.08279	-3770.60889	291.18890	609.75671	-3934.76270	228.27448	54.08372	-4031.82397	295.26709	45.93008	-3815.47119	290.31226	33.36573	-3756.28687	92.12589	234.28065	
17	0.133																																																																																																																																																																						-3693.84009	-5.44823	36.03862	-3609.41943	61.49874	36.17650	-3673.09790	444.02588	879.74768	-3876.13062	3.39413	-13.08098	-3849.90332	277.98212	45.05590	-3748.17920	107.67965	53.76064	-3860.53979	400.43607	1410.29663	-3932.90234	335.86520	32.02654	-4057.43945	234.60037	36.32827	-4067.33350	135.33640	-57.14213	-3815.26270	290.78812	33.39769	-3846.68042	204.55263	1724.52600	-3822.80908	485.86636	1083.31262	-3717.20776	71.10415	584.97375	-3872.69971	336.09848	453.33441	-3998.46631	305.63358	57.22786	
18	0.142																																																																																																																																																																						-3693.30420	-6.01172	34.55200	-3672.90576	442.35934	879.31171	-3876.04126	2.89080	-13.80088	-3849.77490	278.05270	45.27779	-4056.77124	234.18663	37.95957	-3747.89868	107.66373	53.33567	-4067.01953	135.03490	-57.11945	-3931.39673	335.91797	32.54857	-4339.43750	176.87793	-33.64046	-3853.40601	401.84329	1409.67310	-3822.38965	483.75024	1082.79138	-3714.99023	70.61715	584.88647	-3794.83301	9.35185	468.11111	-3607.51147	92.29775	55.85865	
19	0.150																																																																																																																																																																						-3693.05469	-7.28707	32.30164	-4055.99170	233.14723	39.22482	-3875.96313	2.50878	-14.32151	-3849.64673	278.39877	45.48879	-4066.21826	134.50050	-56.46581	-3927.96704	336.91840	33.24623	-4338.95703	176.53917	-31.89590	-3851.91870	399.98135	1409.65881	-3859.76563	336.46054	451.32922	-3866.87573	261.44504	308.21756	-3932.04224	229.48604	56.87272	-3787.89429	10.82578	469.14517	-3607.46289	91.71947	55.20975	
